<svg width="64" height="64" viewBox="0 0 64 64" fill="none" xmlns="http://www.w3.org/2000/svg">
<rect width="64" height="64" rx="4" fill="#1A1C19"/>
<rect width="64" height="64" rx="4" fill="#3CE365" fill-opacity="0.12"/>
<path d="M7.93555 44H15.8457V32.0293C16.291 31.0684 16.9414 30.2715 17.7969 29.6387C18.6523 28.9941 19.543 28.6719 20.4688 28.6719C20.9258 28.6719 21.3125 28.707 21.6289 28.7773C21.9453 28.8477 22.2266 28.9297 22.4727 29.0234V26.5098C22.3203 26.4395 22.0801 26.375 21.752 26.3164C21.4238 26.2461 21.043 26.2109 20.6094 26.2109C19.5664 26.2109 18.6113 26.498 17.7441 27.0723C16.8887 27.6465 16.2383 28.3496 15.793 29.1816H15.7578V26.668H7.93555V44ZM25.0566 44H32.8613V38.4277L44.832 26.668H39.5586L32.8613 33.9277V17.7383H25.0566V44ZM37.1504 44H47.1172L37.8887 31.5898L32.2637 37.25L37.1504 44ZM48.6465 40.7832C48.6465 41.7676 48.9746 42.6113 49.6309 43.3145C50.2871 44.0176 51.2305 44.3691 52.4609 44.3691C53.7031 44.3691 54.6523 44.0234 55.3086 43.332C55.9766 42.6406 56.3105 41.791 56.3105 40.7832C56.3105 39.7871 55.9766 38.9434 55.3086 38.252C54.6523 37.5605 53.709 37.2148 52.4785 37.2148C51.248 37.2148 50.2988 37.5605 49.6309 38.252C48.9746 38.9434 48.6465 39.7871 48.6465 40.7832Z" fill="#3CE365"/>
</svg>
